HIERARCHY
ROOT Hips
{
	OFFSET -3.958830 18.904000 13.208200
	CHANNELS 6 Xposition Yposition Zposition Zrotation Yrotation Xrotation 
	JOINT LHipJoint
	{
		OFFSET 0.000000 0.000000 0.000000
		CHANNELS 3 Zrotation Yrotation Xrotation
		JOINT LeftUpLeg
		{
			OFFSET 1.800000 -1.400000 0.085000
			CHANNELS 3 Zrotation Yrotation Xrotation
			JOINT LeftLeg
			{
				OFFSET 2.215000 -6.000000 0.000000
				CHANNELS 3 Zrotation Yrotation Xrotation
				JOINT LeftFoot
				{
					OFFSET 2.500000 -6.900000 0.000000
					CHANNELS 3 Zrotation Yrotation Xrotation
					JOINT LeftToeBase
					{
						OFFSET 0.200000 -0.500000 1.950000
						CHANNELS 3 Zrotation Yrotation Xrotation
						End Site
						{
							OFFSET 0.000000 0.000000 0.000000
						}
					}
				}
			}
		}
	}
	JOINT RHipJoint
	{
		OFFSET 0.000000 0.000000 0.000000
		CHANNELS 3 Zrotation Yrotation Xrotation
		JOINT RightUpLeg
		{
			OFFSET -1.800000 -1.400000 0.085000
			CHANNELS 3 Zrotation Yrotation Xrotation
			JOINT RightLeg
			{
				OFFSET -2.215000 -6.000000 0.000000
				CHANNELS 3 Zrotation Yrotation Xrotation
				JOINT RightFoot
				{
					OFFSET -2.500000 -6.900000 0.000000
					CHANNELS 3 Zrotation Yrotation Xrotation
					JOINT RightToeBase
					{
						OFFSET -0.200000 -0.500000 1.950000
						CHANNELS 3 Zrotation Yrotation Xrotation
						End Site
						{
							OFFSET 0.000000 0.000000 0.000000
						}
					}
				}
			}
		}
	}
	JOINT LowerBack
	{
		OFFSET 0.000000 0.000000 0.000000
		CHANNELS 3 Zrotation Yrotation Xrotation
		JOINT Spine
		{
			OFFSET -0.087000 1.940000 -0.288900
			CHANNELS 3 Zrotation Yrotation Xrotation
			JOINT Spine1
			{
				OFFSET 0.000000 1.950000 0.060000
				CHANNELS 3 Zrotation Yrotation Xrotation
				JOINT Neck
				{
					OFFSET 0.000000 0.000000 0.000000
					CHANNELS 3 Zrotation Yrotation Xrotation
					JOINT Neck1
					{
						OFFSET 0.000000 1.600000 0.340000
						CHANNELS 3 Zrotation Yrotation Xrotation
						JOINT Head
						{
							OFFSET 0.000000 1.667000 -0.240000
							CHANNELS 3 Zrotation Yrotation Xrotation
							End Site
							{
								OFFSET 0.000000 0.000000 0.000000
							}
						}
					}
				}
				JOINT LeftShoulder
				{
					OFFSET 0.000000 0.000000 0.000000
					CHANNELS 3 Zrotation Yrotation Xrotation
					JOINT LeftArm
					{
						OFFSET 2.700000 1.550000 -0.730000
						CHANNELS 3 Zrotation Yrotation Xrotation
						JOINT LeftForeArm
						{
							OFFSET 5.450000 0.000000 0.000000
							CHANNELS 3 Zrotation Yrotation Xrotation
							JOINT LeftHand
							{
								OFFSET 3.450000 0.000000 0.000000
								CHANNELS 3 Zrotation Yrotation Xrotation
								JOINT LeftHandIndex1
								{
									OFFSET 0.750000 0.000000 0.000000
									CHANNELS 3 Zrotation Yrotation Xrotation
									End Site
									{
										OFFSET 0.000000 0.000000 0.000000
									}
								}
							}
						}
					}
				}
				JOINT RightShoulder
				{
					OFFSET 0.000000 0.000000 0.000000
					CHANNELS 3 Zrotation Yrotation Xrotation
					JOINT RightArm
					{
						OFFSET -2.700000 1.550000 -0.730000
						CHANNELS 3 Zrotation Yrotation Xrotation
						JOINT RightForeArm
						{
							OFFSET -5.450000 0.000000 0.000000
							CHANNELS 3 Zrotation Yrotation Xrotation
							JOINT RightHand
							{
								OFFSET -3.450000 0.000000 0.000000
								CHANNELS 3 Zrotation Yrotation Xrotation
								JOINT RightHandIndex1
								{
									OFFSET -0.750000 0.000000 0.000000
									CHANNELS 3 Zrotation Yrotation Xrotation
									End Site
									{
										OFFSET 0.000000 0.000000 0.000000
									}
								}
							}
						}
					}
				}
			}
		}
	}
}
MOTION
Frames: 13
Frame Time: 0.016667
-0.240790 17.355110 -9.580250 0.688561 10.944196 -6.779609 -15.240196 13.357570 3.783124 1.691833 1.168998 14.577635 -13.380950 7.325006 2.627506 0.472230 5.594773 2.602625 0.673500 0.562330 0.709380 18.358003 -9.472594 3.368460 8.883692 1.315607 -17.122703 4.040783 -1.918241 -2.784397 -0.294112 -1.506477 3.861297 0.183100 -0.459880 -0.095430 -3.796006 -3.723674 -8.756104 8.923765 -8.127137 13.108421 -9.165622 -5.533410 18.689974 3.570548 -1.407339 -22.360624 -14.266231 6.800720 62.718080 0.978960 1.956250 -14.152860 -34.180561 -35.494246 17.970979 -37.051711 -17.258662 -17.127398 20.390830 -52.908243 -16.344826 -2.684956 2.892485 0.707850 -0.412320 0.413010 0.007720 26.534643 36.745745 15.117327 61.972382 2.564832 -6.007465 -6.094993 5.086139 -0.010257 2.553556 -1.212929 0.011250 0.126150 -0.339840 -0.265160 
-0.223870 17.350580 -9.545920 0.236410 10.278545 -6.930544 -15.220373 13.328311 3.767584 1.937861 1.092230 14.911520 -13.445065 7.373543 2.648433 0.485982 5.627194 2.584775 0.692550 0.586970 0.726150 18.388558 -9.448791 3.379882 9.305121 1.371668 -16.673857 4.209038 -1.945416 -2.780815 -0.315601 -1.533909 3.841394 0.193550 -0.479710 -0.089370 -3.852484 -3.708866 -8.729929 9.617224 -8.137233 12.951391 -9.350544 -5.520405 19.230247 3.619238 -1.381946 -22.474125 -14.323215 6.895058 62.429159 0.846340 2.192760 -14.814030 -33.682911 -35.780647 18.145657 -36.783823 -17.908396 -17.042561 21.270510 -51.714612 -16.342292 -2.688448 2.902551 0.710930 -0.422590 0.429100 0.008080 25.866991 36.946167 15.050030 62.225623 3.020781 -6.125491 -6.508246 5.311179 -0.081785 2.553826 -1.230432 0.023180 0.115490 -0.353180 -0.266390 
-0.201700 17.344100 -9.468390 -0.205386 8.919186 -6.847837 -15.221801 13.291046 3.746919 1.881050 1.102386 15.283010 -13.296303 7.410220 2.704749 0.514137 5.643173 2.583140 0.698130 0.600520 0.731910 18.403482 -9.418339 3.394165 9.730646 1.462196 -16.225964 4.800188 -2.001681 -2.653790 -0.321750 -1.591383 3.824640 0.197420 -0.478220 -0.080890 -3.843286 -3.693957 -8.691707 9.880956 -7.837988 12.237686 -9.138094 -5.374049 19.807443 3.559354 -1.114955 -22.378068 -13.555269 6.711535 61.723894 0.310070 2.762860 -14.217000 -32.837817 -35.977759 18.243495 -36.629926 -18.793730 -16.591392 21.680939 -49.769962 -15.807868 -2.705903 2.935987 0.682160 -0.405460 0.425210 0.014990 25.073200 36.861205 14.799199 62.590968 3.639214 -6.019158 -7.038743 5.112885 -0.116317 2.563549 -1.268375 0.036820 0.098240 -0.367530 -0.260480 
-0.173730 17.337660 -9.387300 -0.338913 7.969857 -6.981968 -15.267752 13.332363 3.763936 1.575143 1.176267 15.767380 -12.801398 7.434648 2.929381 0.521623 5.663354 2.576427 0.699490 0.603840 0.734770 18.359426 -9.383959 3.400321 9.835821 1.422779 -15.693084 5.239345 -2.075399 -2.390022 -0.328450 -1.645977 3.806530 0.201570 -0.474200 -0.068120 -3.697071 -3.817317 -8.722958 9.104320 -7.490043 12.038127 -8.263497 -5.238895 20.913424 3.310873 -0.565623 -22.904533 -12.480051 6.342157 61.584204 -0.060620 3.199560 -13.686840 -31.863121 -36.910452 18.751100 -35.569714 -19.878969 -16.416854 22.024914 -47.436316 -15.136047 -2.717517 2.969944 0.671460 -0.388030 0.424820 0.018930 24.549937 37.384931 14.905769 62.755952 3.679674 -6.613728 -8.125912 6.223949 -0.423489 2.536617 -1.302833 0.039720 0.087010 -0.372020 -0.261660 
-0.137200 17.334440 -9.295100 -1.504450 7.493768 -6.975486 -15.263204 13.387531 3.726248 2.560340 0.803067 15.987456 -12.538274 7.537587 3.243084 0.510253 5.754334 2.544658 0.663120 0.553520 0.729310 18.368921 -9.295903 3.440096 10.642844 1.614410 -15.080462 5.765109 -2.159178 -2.123140 -0.323554 -1.693369 3.787429 0.178850 -0.469670 -0.063930 -3.706327 -4.006498 -8.737149 10.229481 -7.655317 11.728617 -7.928314 -5.653782 21.369115 3.397370 -0.070361 -23.310291 -11.840638 6.133644 61.276334 -0.937900 3.696410 -13.129230 -31.899158 -37.240061 19.321116 -34.688524 -20.907266 -16.231261 22.862643 -45.454492 -14.804710 -2.767266 2.970067 0.672220 -0.370300 0.407160 -0.008820 24.163763 37.133375 14.948005 62.924744 2.849961 -7.899272 -9.158940 8.727315 -1.009016 2.492437 -1.302890 0.024080 0.075360 -0.344100 -0.280400 
-0.094930 17.341380 -9.203310 -2.354445 6.941071 -7.135959 -15.256308 13.414628 3.731111 2.920319 0.637193 16.497971 -12.087982 7.542315 3.273579 0.492518 5.791943 2.505036 0.680430 0.554220 0.779400 18.372818 -9.267179 3.460858 10.852727 1.603631 -14.206011 6.458750 -2.297006 -1.868159 -0.357326 -1.762594 3.734178 0.177680 -0.517930 -0.043000 -3.714801 -4.071956 -8.770230 11.017885 -7.640441 11.604087 -7.582953 -5.853743 22.256957 3.511127 0.518788 -24.048609 -10.874303 5.985042 62.211715 -1.915640 4.433000 -13.944170 -31.837359 -37.922824 20.121006 -33.207021 -22.315426 -15.931224 23.171826 -42.453123 -13.869266 -2.774706 2.995818 0.699010 -0.384970 0.431280 -0.043100 23.677297 37.458054 14.953748 62.426402 2.800992 -8.064402 -9.456289 9.242521 -1.094859 2.481015 -1.309754 0.034570 0.042620 -0.341200 -0.312670 
-0.059670 17.346260 -9.099800 -2.719997 6.014704 -6.758611 -15.328004 13.525832 3.769533 2.620682 0.662324 16.659579 -11.420210 7.480209 3.194204 0.479228 5.789947 2.517159 0.642850 0.493830 0.788030 18.294654 -9.191229 3.472799 10.805756 1.606550 -13.846219 7.497017 -2.455662 -1.417886 -0.349512 -1.804802 3.733720 0.148830 -0.511430 -0.048580 -3.490037 -4.362453 -8.856876 10.489931 -7.325929 11.256929 -6.545574 -5.961037 21.956804 3.653940 1.305914 -24.361105 -9.687256 5.680125 62.827267 -3.161260 5.228030 -13.041580 -32.278934 -37.624246 20.429541 -32.735046 -23.141999 -15.206227 22.748312 -39.614163 -12.702716 -2.798897 2.977935 0.710310 -0.367350 0.419400 -0.059270 23.734508 36.645710 14.933571 62.810001 1.454235 -9.655109 -11.029641 11.910097 -1.825223 2.439146 -1.301395 0.005780 0.046150 -0.327610 -0.337110 
-0.030790 17.358940 -9.004300 -3.193030 5.130570 -6.649810 -15.331632 13.596241 3.773757 2.487224 0.626725 16.568458 -10.785871 7.495280 3.870548 0.466999 5.747084 2.512455 0.650590 0.497850 0.810350 18.271464 -9.196235 3.512373 10.827227 1.559540 -13.311891 8.548381 -2.643969 -1.063874 -0.381888 -1.873546 3.694689 0.140300 -0.543510 -0.026750 -3.443810 -4.436477 -8.939066 10.511943 -7.150348 11.197423 -6.088506 -5.962439 21.963296 3.654128 2.057615 -25.124317 -8.383283 5.295677 64.463275 -3.966210 5.772170 -13.118300 -33.071444 -37.873108 21.091007 -31.147208 -23.782802 -14.649486 22.418971 -36.198984 -11.362370 -2.808917 3.004184 0.725450 -0.375190 0.446620 -0.072010 24.337851 36.667399 14.969581 62.848265 0.832485 -10.333795 -12.383132 12.818613 -2.180912 2.424089 -1.319066 0.023240 0.018540 -0.330410 -0.348580 
0.008860 17.368210 -8.898490 -4.429896 3.866302 -6.520935 -15.283835 13.581715 3.744907 2.487631 0.557543 16.807912 -9.812096 7.407030 4.090030 0.456605 5.688517 2.526078 0.665260 0.509320 0.850070 18.319689 -9.191094 3.572664 11.645579 1.637910 -12.565113 9.390640 -2.828898 -0.717538 -0.423280 -1.945891 3.658147 0.139960 -0.581830 -0.021430 -3.565651 -4.373349 -8.941407 12.231686 -6.998522 10.724958 -6.163874 -6.032736 22.087861 4.017959 2.593096 -25.545536 -7.356308 4.793893 65.478615 -5.577440 6.252400 -13.746960 -33.793221 -38.025941 21.596151 -30.248327 -24.131264 -14.126820 21.917055 -33.365504 -10.282182 -2.799908 3.001221 0.742080 -0.390090 0.477490 -0.078350 24.079588 36.711829 14.912877 62.887215 0.662214 -10.473120 -12.888959 12.923806 -2.234422 2.429075 -1.323130 0.030870 0.009490 -0.348770 -0.362760 
0.057720 17.375130 -8.798860 -5.629941 2.648477 -6.287326 -15.212752 13.552779 3.706451 2.277150 0.584415 16.920031 -8.773255 7.271112 4.199593 0.449314 5.599455 2.551357 0.658900 0.523780 0.835270 18.396126 -9.206514 3.589334 12.242696 1.684645 -12.227075 10.161313 -3.097574 0.244107 -0.437426 -2.020501 3.636278 0.141950 -0.581640 -0.022180 -3.761783 -4.289801 -8.865065 14.369853 -6.968918 10.114641 -6.282324 -6.237362 22.406030 4.125329 2.673203 -25.875528 -7.350061 4.863574 65.527061 -6.060130 6.547430 -13.699990 -33.908314 -38.206634 22.038804 -29.914055 -25.116761 -13.198408 22.352235 -29.689602 -9.413749 -2.844560 3.002673 0.727850 -0.382010 0.482040 -0.075210 23.744749 36.744647 14.793835 62.617380 0.584956 -10.563941 -13.381190 13.000690 -2.300150 2.426997 -1.332170 0.039510 0.008680 -0.349510 -0.352740 
0.101550 17.372960 -8.693740 -6.646741 1.733070 -5.938576 -15.157869 13.511649 3.649944 2.239932 0.546670 16.918918 -8.156298 7.217342 4.481625 0.451678 5.557807 2.569010 0.650200 0.522900 0.826230 18.463735 -9.204022 3.602021 12.645458 1.678603 -11.752403 10.915114 -3.273619 0.455316 -0.454671 -2.108418 3.617352 0.134650 -0.571910 -0.017870 -3.925068 -4.219797 -8.771355 16.183873 -6.884862 9.294779 -6.485952 -6.395891 22.521861 4.243188 2.783945 -25.898291 -7.234284 4.888439 65.224340 -6.439610 6.827380 -13.503380 -34.011843 -38.157682 22.218971 -29.943962 -25.806776 -12.164938 22.211700 -26.600484 -8.540332 -2.887333 3.003538 0.712010 -0.368040 0.479870 -0.070330 23.405942 36.432221 14.595680 62.757776 0.471681 -10.783224 -13.848508 13.218303 -2.405275 2.424350 -1.337593 0.046550 0.008490 -0.349370 -0.344990 
0.140050 17.374410 -8.590400 -7.559628 0.774427 -5.644232 -15.107036 13.464655 3.590136 2.274666 0.483208 16.760751 -7.879916 7.217170 4.944059 0.444635 5.546083 2.570785 0.640900 0.505850 0.828770 18.525927 -9.212583 3.617548 13.012692 1.642879 -11.126355 11.525091 -3.439317 0.584319 -0.478253 -2.205989 3.576431 0.121140 -0.569630 -0.000690 -4.074505 -4.121717 -8.676016 17.821292 -6.748309 8.457728 -6.789473 -6.446041 22.600198 4.391683 2.872199 -26.000088 -7.141000 4.906661 65.299075 -6.917220 7.057450 -13.111400 -33.831208 -38.266451 22.244589 -30.220012 -25.925548 -10.949998 22.014203 -23.434270 -7.679445 -2.938235 3.014276 0.707660 -0.358500 0.480740 -0.077580 22.772460 36.362634 14.435764 63.303968 0.592363 -10.816935 -14.359974 12.746683 -2.356446 2.433870 -1.349468 0.053390 -0.004900 -0.341620 -0.346150 
0.170020 17.398060 -8.484530 -8.073530 -0.302001 -5.685434 -15.128550 13.527832 3.605543 2.160627 0.478925 16.766175 -7.548785 7.229762 5.471774 0.413930 5.544190 2.553630 0.654070 0.511110 0.868530 18.493558 -9.199840 3.644739 13.094569 1.521532 -10.263030 11.982559 -3.638326 0.994230 -0.510017 -2.280162 3.538096 0.129230 -0.608420 -0.006710 -3.987083 -4.215682 -8.731285 17.895604 -6.457665 8.330522 -6.005762 -6.547862 23.032952 4.614940 3.118213 -26.742451 -6.983787 4.971028 66.883734 -7.923490 7.515230 -13.596240 -34.416726 -38.774385 22.644789 -29.895973 -25.577990 -10.143444 21.475789 -20.726231 -6.849722 -2.946225 2.994019 0.737470 -0.375870 0.501820 -0.098130 22.909773 37.040370 14.672071 62.375936 0.186084 -10.546005 -14.128126 12.260051 -2.138425 2.434749 -1.334959 0.045520 -0.005710 -0.344840 -0.373980 
